Coordinates
version=1
nRows=16
nColumns=33
inDegrees=yes

Units are S.I. units (second, meters, Newtons, ...)
Angles are in degrees.

endheader
time	ground_thorax_rot_x	ground_thorax_rot_y	ground_thorax_rot_z	ground_thorax_tx	ground_thorax_ty	ground_thorax_tz	clav_prot_r	clav_elev_r	scapula_abduction_r	scapula_elevation_r	scapula_upward_rot_r	scapula_winging_r	shoulder_elv_r	plane_of_elev_r	axial_rot_r	elbow_flexion_r	pro_sup_r	wrist_flex_r	wrist_dev_r	clav_prot_l	clav_elev_l	scapula_abduction_l	scapula_elevation_l	scapula_upward_rot_l	scapula_winging_l	shoulder_elv_l	plane_of_elev_l	axial_rot_l	elbow_flexion_l	pro_sup_l	wrist_flex_l	wrist_dev_l
      3.41000000	    -36.06284411	     -0.53834532	      3.29193302	     63.99561896	    758.48406087	    -33.48495220	     14.12637362	    -45.00000000	     45.00000000	    -45.00000000	     -4.73094099	  -2610.33481969	  -2451.33710612	     18.00206890	   -155.88518152	   1441.01931193	   -193.73646856	     10.67847828	     12.62422314	     15.80520670	     21.91116127	    -43.68658636	    -39.50052527	    -45.00000000	  -2810.46778118	  -1702.36900148	     20.20929513	   -179.99999979	   1787.27387131	    -86.25781819	      0.48838424	    -16.42953687
      3.42000000	    -35.99577746	      0.03131269	      2.91702196	     64.03292773	    758.10162412	    -33.39663360	     14.20549423	    -45.00000000	     45.00000000	    -45.00000000	     -3.89771432	  -2610.49754236	  -2451.21149670	     17.96469519	   -155.45099857	   1441.02712913	   -193.01454630	     10.61648377	     12.99316503	     16.19935935	     21.73857689	    -44.07590861	    -39.22628678	    -45.00000000	  -2810.18543558	  -1702.26663394	     20.37144389	   -179.99999979	   1787.21135469	    -86.36999183	      0.43799531	    -16.47090361
      3.43000000	    -36.00928263	      0.45191556	      2.53650689	     63.96990837	    757.75391441	    -33.31038792	     13.55022227	    -45.00000000	     45.00000000	    -45.00000000	     -3.53077323	  -2610.43402679	  -2451.24210364	     17.94156200	   -155.44699432	   1441.11528172	   -192.80332359	     10.94459373	     12.58141351	     16.31679695	     21.84495688	    -44.25309401	    -39.27439092	    -45.00000000	  -2810.33963105	  -1702.19889737	     20.27614594	   -179.99999979	   1787.24247077	    -86.28090241	      0.29647979	    -16.19336199
      3.44000000	    -36.04336150	      0.87964580	      2.21286455	     63.80260186	    757.43868047	    -33.22377259	     13.81429640	    -45.00000000	     45.00000000	    -45.00000000	     -3.02634962	  -2610.51266939	  -2451.19844585	     17.95276902	   -155.33210101	   1441.12251160	   -192.70556560	     10.64360575	     13.17039141	     16.61944629	     21.91259596	    -44.46898521	    -39.28949332	    -45.00000000	  -2810.17737509	  -1702.15068421	     20.46148708	   -179.99999979	   1787.19548421	    -85.91712815	      0.26730857	    -16.30305582
      3.45000000	    -36.10128974	      1.19417483	      1.90604706	     63.52918556	    757.14946446	    -33.13644391	     13.19272015	    -45.00000000	     45.00000000	    -45.00000000	     -2.86901991	  -2610.41196900	  -2451.26297869	     17.86620432	   -155.26628173	   1441.14863186	   -192.87366405	     11.12470756	     12.51528268	     16.66395819	     21.90145002	    -44.56953741	    -39.38092967	    -45.00000000	  -2810.31736774	  -1702.13617123	     20.32078652	   -179.99999979	   1787.13785818	    -85.31940543	      0.06728461	    -15.92111239
      3.46000000	    -36.15033559	      1.56327008	      1.65715106	     63.14687793	    756.87893512	    -33.04649369	     13.54561604	    -45.00000000	     45.00000000	    -45.00000000	     -2.39378510	  -2610.58438240	  -2451.21899903	     17.92303269	   -155.15622151	   1441.16264324	   -193.00661001	     10.60653262	     13.37983082	     16.87351703	     22.09853517	    -44.67575401	    -39.40865458	    -45.00000000	  -2810.19149875	  -1702.08436960	     20.50374117	   -179.99999979	   1787.03628621	    -84.36637140	      0.03857270	    -16.11911177
      3.47000000	    -36.24549487	      1.93602981	      1.23729924	     62.65462690	    756.62526465	    -32.95593745	     13.10018980	    -45.00000000	     45.00000000	    -45.00000000	     -2.21044862	  -2610.37460379	  -2451.30539178	     17.85350978	   -155.03517202	   1441.22783915	   -193.32205195	     10.81703659	     13.07725307	     17.00740885	     22.17392887	    -44.79938340	    -39.59138146	    -45.00000000	  -2810.34464222	  -1702.01895915	     20.41526645	   -179.99999979	   1787.00481540	    -82.75328722	     -0.14535249	    -15.82114700
      3.48000000	    -36.30963152	      2.30597253	      0.90268309	     62.05728927	    756.38871116	    -32.86634295	     13.05643543	    -45.00000000	     45.00000000	    -45.00000000	     -1.90965036	  -2610.41706755	  -2451.37358132	     17.89624537	   -154.92208058	   1441.35530651	   -193.62530955	     10.93475001	     12.94080858	     17.07011541	     22.24122087	    -44.93762956	    -39.61574361	    -45.00000000	  -2810.27958332	  -1701.96997841	     20.44264416	   -179.99999979	   1786.87890600	    -80.98327359	     -0.27322069	    -15.55509365
      3.49000000	    -36.38757575	      2.65040963	      0.58111852	     61.34696889	    756.16650775	    -32.78058273	     12.79586703	    -45.00000000	     45.00000000	    -45.00000000	     -1.54934227	  -2610.37662475	  -2451.30833679	     17.76090664	   -154.84609534	   1441.29501483	   -193.88440280	     10.78981863	     13.23359079	     17.25865499	     22.40589871	    -44.91061751	    -39.77369158	    -45.00000000	  -2810.42001136	  -1701.85736726	     20.44266253	   -179.99999979	   1786.73599852	    -78.79754769	     -0.43330997	    -15.47013363
      3.50000000	    -36.48861720	      3.11725337	      0.05231658	     60.52744707	    755.96208515	    -32.70170949	     12.73205780	    -45.00000000	     45.00000000	    -45.00000000	     -1.18410900	  -2610.33791046	  -2451.39720980	     17.81005214	   -154.79501362	   1441.32576847	   -194.23551307	     10.90464402	     13.09645457	     17.39202249	     22.62668847	    -45.00000000	    -39.99161972	    -45.00000000	  -2810.47968451	  -1701.83866971	     20.47004279	   -179.99999979	   1786.48938282	    -75.63451488	     -0.63591084	    -15.17201330
      3.51000000	    -36.57503115	      3.57088598	     -0.33983448	     59.59389247	    755.77841368	    -32.63241171	     12.45740667	    -45.00000000	     45.00000000	    -45.00000000	     -0.64981607	  -2610.43993413	  -2451.43574816	     17.79260888	   -154.75931988	   1441.38557316	   -194.49547576	     10.91062286	     13.19575703	     17.52403726	     22.76614614	    -45.00000000	    -40.16071812	    -45.00000000	  -2810.53823609	  -1701.70272660	     20.57506070	   -179.99999979	   1786.18949220	    -72.37984742	     -0.76806819	    -14.82402332
      3.52000000	    -36.86497812	      5.78087926	     -3.11616925	     58.55519646	    755.61709145	    -32.57442467	     11.51686306	    -45.00000000	     45.00000000	    -45.00000000	      2.23908507	  -2609.75142246	  -2451.73062941	     17.34689031	   -154.19369987	   1441.04843932	   -195.77257605	     10.98441025	     13.18179066	     18.72061404	     24.59425390	    -45.00000000	    -41.68295653	    -45.00000000	  -2811.76395734	  -1703.07992694	     20.89717650	   -179.99999979	   1795.82110217	    128.97721895	     10.82967357	     -8.41592141
      3.53000000	    -36.90519554	      5.96937237	     -3.29409703	     57.39779842	    755.49558004	    -32.52858676	     10.99658971	    -45.00000000	     45.00000000	    -45.00000000	      2.07373408	  -2609.93921951	  -2451.84228950	     17.70395988	   -154.95974548	   1441.22627181	   -195.75952127	     10.82066634	     13.26324391	     18.57767968	     23.74573992	    -45.00000000	    -41.70153702	    -45.00000000	  -2812.13065642	  -1702.93026487	     20.39741315	   -179.99999979	   1795.89283319	    128.99361786	     10.99708673	     -8.54311898
      3.54000000	    -36.98093648	      6.05211379	     -3.27548649	     56.12975771	    755.41222415	    -32.49613584	     11.39374275	    -45.00000000	     45.00000000	    -45.00000000	      2.16140250	  -2610.02256207	  -2451.79769784	     17.54114144	   -154.70570880	   1441.23716735	   -195.62590016	     10.97925970	     13.27855068	     18.57060691	     24.32999968	    -45.00000000	    -41.74144014	    -45.00000000	  -2811.87543160	  -1703.15392496	     20.58089429	   -179.99999979	   1796.01530292	    129.06040367	     10.75343650	     -8.50310308
      3.55000000	    -37.04615227	      6.31158671	     -3.30258941	     54.74893927	    755.37595308	    -32.47740894	     11.01655036	    -45.00000000	     45.00000000	    -45.00000000	      2.25069759	  -2610.34420771	  -2451.73634221	     17.60517925	   -154.74946368	   1441.29916710	   -195.56420965	     10.95447558	     13.30263634	     18.63112618	     23.99515843	    -45.00000000	    -41.81084412	    -45.00000000	  -2812.12412798	  -1703.00631903	     20.29700913	   -179.99999979	   1796.04602336	    129.16081387	     10.75391143	     -8.68801268
      3.56000000	    -37.19477387	      6.47656801	     -3.50797722	     53.25021573	    755.39287099	    -32.47239121	     11.36429107	    -45.00000000	     45.00000000	    -45.00000000	      2.22617704	  -2610.22202557	  -2451.74147967	     17.46933853	   -154.52220195	   1441.25422613	   -195.44950541	     11.11618216	     13.33450284	     18.58867015	     24.61609215	    -45.00000000	    -41.92723171	    -45.00000000	  -2811.67748596	  -1703.17961341	     20.63749143	   -179.99999979	   1796.16627258	    129.36429217	     10.50614513	     -8.56523008
